#N canvas -8 -8 1282 634 10;
#X obj 125 63 tgl 25 0 empty empty empty 17 7 0 25 #fcfcfc #000000
#000000 0 1;
#X obj 458 283 *;
#X obj 506 279 samplerate~;
#X obj 458 259 t f b;
#N canvas 163 142 813 514 set 0;
#X obj 314 83 inlet;
#X obj 314 205 realtime;
#X obj 314 109 t b b;
#X obj 153 201 +;
#X obj 126 200 f;
#X msg 153 159 1;
#X obj 359 178 spigot;
#X obj 126 285 > 1;
#X obj 618 330 sel 1;
#X msg 126 159 0;
#X obj 642 195 metro 1;
#X obj 642 251 +;
#X obj 618 251 f;
#X msg 642 215 1;
#X msg 614 215 0;
#X obj 172 255 sel 1;
#X obj 642 170 tgl 15 0 empty empty empty 17 7 0 10 #fcfcfc #000000
#000000 0 1;
#X obj 314 350 +;
#X obj 288 350 f;
#X obj 618 282 spigot;
#X obj 288 402 /;
#X obj 199 361 - 1;
#X obj 315 485 outlet;
#X obj 275 86 bng 15 250 50 0 empty empty empty 17 7 0 10 #fcfcfc #000000
#000000;
#X floatatom 341 463 12 0 0 0 - - -, f 12;
#X obj 126 306 s TAP_not_first;
#X obj 392 156 r TAP_not_first;
#X obj 671 253 r TAP_not_first;
#X obj 172 277 s TAP_start;
#X obj 642 148 r TAP_start;
#X obj 288 439 sel 0;
#X obj 618 311 > 3000;
#X obj 618 351 s TAP_finish;
#X obj 614 125 r TAP_finish;
#X obj 126 136 r TAP_finish;
#X msg 288 329 0;
#X obj 288 306 r TAP_finish;
#X text 500 24 A timer gets triggered and reset every time;
#X text 499 38 the inlet receives a bang. If nothing happens;
#X text 498 53 afterwards for 3000 ms \, the "tempo" is considered
;
#X text 498 68 definitive \, and everything gets reset.;
#X text 498 90 comment;
#X text 12 189 Count the number;
#X text 12 201 of bangs received.;
#X text 385 199 Measure the time between;
#X text 385 212 two bangs (making sure that;
#X text 386 223 we only start measuring at;
#X text 386 235 the second bang).;
#X text 358 342 Sum the measured durations...;
#X text 336 403 ... and divide it by the number of bangs-1;
#X text 336 417 to get the average time between 2 bangs.;
#X text 558 490 Pierre Massat \, Guitar Extended \, 2013;
#X text 6 2 "Tap tempo" : we don't measure the tempo;
#X text 5 16 here \, but the duration between 2 beats (bangs).;
#X text 5 30 This is used later to set the length of the loop.;
#X connect 0 0 2 0;
#X connect 1 0 17 0;
#X connect 2 0 1 0;
#X connect 2 1 5 0;
#X connect 2 1 6 0;
#X connect 2 1 14 0;
#X connect 3 0 4 0;
#X connect 4 0 3 1;
#X connect 4 0 7 0;
#X connect 4 0 21 0;
#X connect 4 0 15 0;
#X connect 5 0 3 0;
#X connect 6 0 1 1;
#X connect 7 0 25 0;
#X connect 8 0 32 0;
#X connect 9 0 4 0;
#X connect 10 0 13 0;
#X connect 11 0 12 0;
#X connect 12 0 11 1;
#X connect 12 0 19 0;
#X connect 13 0 11 0;
#X connect 14 0 12 0;
#X connect 15 0 28 0;
#X connect 16 0 10 0;
#X connect 17 0 18 0;
#X connect 18 0 17 1;
#X connect 18 0 20 0;
#X connect 19 0 31 0;
#X connect 20 0 30 0;
#X connect 21 0 20 1;
#X connect 23 0 2 0;
#X connect 26 0 6 1;
#X connect 27 0 19 1;
#X connect 29 0 16 0;
#X connect 30 1 22 0;
#X connect 30 1 24 0;
#X connect 31 0 8 0;
#X connect 33 0 16 0;
#X connect 34 0 9 0;
#X connect 35 0 18 0;
#X connect 36 0 35 0;
#X restore 458 131 pd set tempo;
#X obj 458 193 * 4;
#X obj 458 99 bng 15 250 50 0 empty empty empty 17 7 0 10 #fcfcfc #000000
#000000;
#X obj 458 237 / 1000;
#X obj 55 223 r~ main_out;
#X obj 73 260 +~;
#X obj 89 129 *~;
#X obj 125 111 line~;
#X obj 125 93 pack 0 5;
#X obj 480 393 r loop_on_off;
#X text 155 63 Record;
#N canvas 330 257 450 300 into_blocks 0;
#X obj 173 101 % 64;
#X obj 146 81 t f f;
#X obj 146 121 -;
#X obj 146 59 int;
#X obj 146 17 inlet;
#X obj 146 167 outlet;
#X text 238 67 to be a multiple of the block size.;
#X text 238 49 Force the length of the tables;
#X text 134 261 Pierre Massat \, Guitar extended \, 2013;
#X connect 0 0 2 1;
#X connect 1 0 2 0;
#X connect 1 1 0 0;
#X connect 2 0 5 0;
#X connect 3 0 1 0;
#X connect 4 0 3 0;
#X restore 458 305 pd into_blocks;
#X obj 458 330 s new_length;
#X obj 847 262 r new_length;
#X obj 559 549 spigot;
#X obj 480 453 sel 1 0;
#X msg 480 486 bang;
#X msg 514 485 stop;
#X obj 478 565 s~ main_out;
#X obj 847 332 r empty_table;
#X obj 775 122 t f f;
#X obj 775 166 s loop_on_off;
#X obj 480 433 t f f;
#X obj 579 528 s stop_looping;
#X obj 141 279 r stop_looping;
#X obj 559 578 s new_cycle;
#X obj 160 300 r new_cycle;
#X obj 73 321 tabwrite~ bande;
#X obj 478 527 tabplay~ bande;
#X obj 847 404 table bande;
#N canvas 252 74 668 461 limiter 0;
#X obj 24 22 inlet~;
#X msg 121 85 limit 100;
#X obj 121 21 loadbang;
#X obj 24 60 z~ 64;
#X obj 24 169 *~;
#X obj 24 200 outlet~;
#X obj 121 113 limiter~ 10;
#X connect 0 0 3 0;
#X connect 0 0 6 0;
#X connect 1 0 6 0;
#X connect 2 0 1 0;
#X connect 3 0 4 0;
#X connect 4 0 5 0;
#X connect 6 0 4 1;
#X restore 89 179 pd limiter;
#X obj 605 100 bng 15 250 50 0 empty empty empty 17 7 0 10 #fcfcfc
#000000 #000000;
#X obj 605 176 s empty_table;
#X text 446 56 Tempo;
#X obj 480 413 tgl 15 0 empty empty empty 17 7 0 10 #fcfcfc #000000
#000000 0 1;
#X obj 775 102 tgl 15 0 empty empty empty 17 7 0 10 #fcfcfc #000000
#000000 0 1;
#X msg 449 393 1;
#X obj 605 120 t b b;
#X obj 605 143 del 2;
#X text 746 53 Audio On/Off;
#X text 595 56 Clear;
#X obj 449 369 r new_length;
#N canvas 185 178 252 185 limiter 0;
#X obj 24 22 inlet~;
#X msg 121 85 limit 100;
#X obj 121 21 loadbang;
#X obj 24 60 z~ 64;
#X obj 24 169 *~;
#X obj 24 200 outlet~;
#X obj 121 113 limiter~ 10;
#X connect 0 0 3 0;
#X connect 0 0 6 0;
#X connect 1 0 6 0;
#X connect 2 0 1 0;
#X connect 3 0 4 0;
#X connect 4 0 5 0;
#X connect 6 0 4 1;
#X restore 110 520 pd limiter;
#X obj 802 147 switch~;
#X msg 847 354 \; bande const 0 \;;
#X msg 847 282 \; bande resize \$1 \;;
#X obj 111 500 *~;
#X obj 126 479 line~;
#X obj 126 459 pack 0 5;
#X obj 110 410 r~ main_out;
#X obj 126 438 r vol-output;
#X obj 751 188 s vol-output;
#X text 155 173 limite le volume;
#X text 562 473 Loop;
#X text 175 103 permet un démarrage moins brutal;
#X obj 60 30 inlet~;
#X obj 120 30 inlet;
#X obj 400 70 inlet;
#X obj 540 70 inlet;
#X obj 690 70 inlet;
#X obj 100 550 outlet~;
#X connect 0 0 12 0;
#X connect 1 0 15 0;
#X connect 2 0 1 1;
#X connect 3 0 1 0;
#X connect 3 1 2 0;
#X connect 4 0 5 0;
#X connect 5 0 7 0;
#X connect 6 0 4 0;
#X connect 7 0 3 0;
#X connect 8 0 9 0;
#X connect 9 0 31 0;
#X connect 10 0 34 0;
#X connect 11 0 10 1;
#X connect 12 0 11 0;
#X connect 13 0 38 0;
#X connect 15 0 16 0;
#X connect 17 0 49 0;
#X connect 18 0 29 0;
#X connect 18 0 32 0;
#X connect 19 0 20 0;
#X connect 19 1 21 0;
#X connect 20 0 29 0;
#X connect 20 0 32 0;
#X connect 21 0 27 0;
#X connect 21 0 32 0;
#X connect 23 0 48 0;
#X connect 24 0 25 0;
#X connect 24 0 55 0;
#X connect 24 1 47 0;
#X connect 26 0 19 0;
#X connect 26 1 18 1;
#X connect 28 0 31 0;
#X connect 30 0 31 0;
#X connect 32 0 22 0;
#X connect 32 1 18 0;
#X connect 34 0 9 1;
#X connect 35 0 41 0;
#X connect 38 0 26 0;
#X connect 39 0 24 0;
#X connect 40 0 38 0;
#X connect 41 0 42 0;
#X connect 41 1 36 0;
#X connect 42 0 36 0;
#X connect 45 0 40 0;
#X connect 46 0 64 0;
#X connect 50 0 46 0;
#X connect 51 0 50 1;
#X connect 52 0 51 0;
#X connect 53 0 50 0;
#X connect 54 0 52 0;
#X connect 59 0 10 0;
#X connect 60 0 0 0;
#X connect 61 0 6 0;
#X connect 62 0 35 0;
#X connect 63 0 39 0;
